<svg width="144" height="28" viewBox="0 0 144 28" fill="none" xmlns="http://www.w3.org/2000/svg">
<path d="M5.48316 8.92142C9.03092 5.98223 11.4708 7.30637 14.2963 8.83894C15.9804 9.75291 17.7905 10.7338 19.8615 10.7338C21.4375 10.7338 23.1651 10.1631 25.1001 8.56029C25.1912 8.48583 25.2667 8.39406 25.3222 8.29028C25.3777 8.18651 25.4121 8.07277 25.4234 7.95564C25.4347 7.83851 25.4227 7.72029 25.3882 7.6078C25.3536 7.49532 25.2971 7.39079 25.2219 7.30025C25.1467 7.2097 25.0544 7.13494 24.9502 7.08025C24.846 7.02557 24.732 6.99206 24.6148 6.98164C24.4975 6.97123 24.3794 6.98412 24.2672 7.01958C24.155 7.05503 24.0509 7.11235 23.9609 7.18822C20.4132 10.1285 17.9733 8.80439 15.1478 7.2707C12.1819 5.66457 8.82138 3.84109 4.34404 7.55047C4.24974 7.62386 4.17115 7.71545 4.11294 7.81981C4.05473 7.92417 4.01809 8.03917 4.0052 8.15797C3.99231 8.27677 4.00343 8.39694 4.0379 8.51136C4.07237 8.62578 4.12948 8.7321 4.20585 8.82401C4.28222 8.91592 4.37628 8.99154 4.48245 9.04638C4.58861 9.10122 4.70472 9.13417 4.82387 9.14325C4.94302 9.15234 5.06278 9.13739 5.17604 9.09928C5.2893 9.06117 5.39374 9.00069 5.48316 8.92142Z" fill="#941E32"/>
<path d="M5.48316 15.4668C9.03092 12.5276 11.4708 13.8517 14.2963 15.3843C15.9804 16.2983 17.7905 17.2791 19.8615 17.2791C21.4375 17.2791 23.1651 16.7084 25.1001 15.1056C25.1912 15.0312 25.2667 14.9394 25.3222 14.8356C25.3777 14.7319 25.4121 14.6181 25.4234 14.501C25.4347 14.3839 25.4227 14.2656 25.3882 14.1532C25.3536 14.0407 25.2971 13.9361 25.2219 13.8456C25.1467 13.7551 25.0544 13.6803 24.9502 13.6256C24.846 13.5709 24.732 13.5374 24.6148 13.527C24.4975 13.5166 24.3794 13.5295 24.2672 13.5649C24.155 13.6004 24.0509 13.6577 23.9609 13.7336C20.4132 16.6739 17.9733 15.3497 15.1478 13.8161C12.1819 12.2099 8.82138 10.3864 4.34404 14.0958C4.24974 14.1692 4.17115 14.2608 4.11294 14.3652C4.05473 14.4695 4.01809 14.5845 4.0052 14.7033C3.99231 14.8221 4.00343 14.9423 4.0379 15.0567C4.07237 15.1711 4.12948 15.2775 4.20585 15.3694C4.28222 15.4613 4.37628 15.5369 4.48245 15.5917C4.58861 15.6466 4.70472 15.6795 4.82387 15.6886C4.94302 15.6977 5.06278 15.6827 5.17604 15.6446C5.2893 15.6065 5.39374 15.546 5.48316 15.4668Z" fill="#DF7500"/>
<path d="M5.48316 22.0121C9.03092 19.0729 11.4708 20.3971 14.2963 21.9296C15.9804 22.8436 17.7905 23.8245 19.8615 23.8245C21.4375 23.8245 23.1651 23.2538 25.1001 21.651C25.1912 21.5765 25.2667 21.4848 25.3222 21.381C25.3777 21.2772 25.4121 21.1635 25.4234 21.0463C25.4347 20.9292 25.4227 20.811 25.3882 20.6985C25.3536 20.586 25.2971 20.4815 25.2219 20.391C25.1467 20.3004 25.0544 20.2256 24.9502 20.171C24.846 20.1163 24.732 20.0828 24.6148 20.0724C24.4975 20.0619 24.3794 20.0748 24.2672 20.1103C24.155 20.1457 24.0509 20.2031 23.9609 20.2789C20.4132 23.2192 17.9733 21.8951 15.1478 20.3614C12.1819 18.7553 8.82138 16.9318 4.34404 20.6412C4.24974 20.7146 4.17115 20.8062 4.11294 20.9105C4.05473 21.0149 4.01809 21.1299 4.0052 21.2487C3.99231 21.3675 4.00343 21.4877 4.0379 21.6021C4.07237 21.7165 4.12948 21.8228 4.20585 21.9147C4.28222 22.0066 4.37628 22.0823 4.48245 22.1371C4.58861 22.1919 4.70472 22.2249 4.82387 22.234C4.94302 22.243 5.06278 22.2281 5.17604 22.19C5.2893 22.1519 5.39374 22.0914 5.48316 22.0121Z" fill="#005F56"/>
<path d="M39.2716 6.21929C34.9123 6.21929 32.1646 9.44253 32.1646 14.2774C32.1646 19.1915 35.0708 22.177 39.3245 22.177C42.4949 22.177 45.586 20.6446 45.586 16.1004V15.1229H38.7432V13.432H47.3826V23.683H45.8767L45.6917 20.6711C44.6878 22.5469 42.31 23.9736 39.2452 23.9736C33.8819 23.9736 30.1831 20.1162 30.1831 14.2774C30.1831 8.49141 33.8819 4.42272 39.2981 4.42272C43.2875 4.42272 46.3786 6.69485 47.1184 10.1295H45.0576C44.265 7.54029 42.0457 6.21929 39.2716 6.21929Z" fill="#941E32"/>
<path d="M49.6019 17.2629C49.6019 13.3527 52.3496 10.5258 56.1012 10.5258C59.8529 10.5258 62.6006 13.3527 62.6006 17.2629C62.6006 21.1466 59.8529 23.9736 56.1012 23.9736C52.3496 23.9736 49.6019 21.1466 49.6019 17.2629ZM51.4513 17.2365C51.4513 20.2483 53.3535 22.3355 56.1012 22.3355C58.8225 22.3355 60.7512 20.2483 60.7512 17.2365C60.7512 14.2774 58.8225 12.1638 56.1012 12.1638C53.3535 12.1638 51.4513 14.2774 51.4513 17.2365Z" fill="#941E32"/>
<path d="M68.2512 23.6565L63.02 10.8692H64.9751L68.2776 19.1123C68.621 20.037 68.9645 20.9088 69.2023 21.7543C69.4401 20.8824 69.7835 20.037 70.1534 19.1123L73.5088 10.8692H75.3846L70.0742 23.6565H68.2512Z" fill="#941E32"/>
<path d="M85.1423 16.9987H80.8886V23.6565H77.5069V4.34346H85.1423C89.026 4.34346 91.5359 6.87979 91.5359 10.6579C91.5359 14.3831 88.9996 16.9987 85.1423 16.9987ZM84.4818 7.35535H80.8886V13.9868H84.4289C86.7539 13.9868 87.9956 12.745 87.9956 10.6314C87.9956 8.51783 86.7275 7.35535 84.4818 7.35535Z" fill="#141414"/>
<path d="M102.492 10.605H105.715V23.6565H102.729L102.492 21.9128C101.699 23.1546 100.008 24 98.2644 24C95.2525 24 93.4823 21.9657 93.4823 18.7688V10.605H96.7056V17.6328C96.7056 20.1162 97.6831 21.1202 99.4797 21.1202C101.514 21.1202 102.492 19.9313 102.492 17.4478V10.605Z" fill="#141414"/>
<path d="M112.029 23.6565H108.833V4H112.029V23.6565Z" fill="#141414"/>
<path d="M114.142 19.6935H117.207C117.234 20.8296 118.079 21.5429 119.559 21.5429C121.064 21.5429 121.884 20.9353 121.884 19.9841C121.884 19.3236 121.54 18.8481 120.378 18.5839L118.026 18.0291C115.675 17.5007 114.539 16.391 114.539 14.3038C114.539 11.7411 116.705 10.2087 119.717 10.2087C122.65 10.2087 124.631 11.8996 124.658 14.4359H121.593C121.566 13.3263 120.827 12.6129 119.585 12.6129C118.317 12.6129 117.577 13.1942 117.577 14.1717C117.577 14.9115 118.158 15.3871 119.268 15.6513L121.619 16.2061C123.812 16.7081 124.922 17.712 124.922 19.7199C124.922 22.362 122.676 24 119.453 24C116.203 24 114.142 22.2563 114.142 19.6935Z" fill="#141414"/>
<path d="M132.951 24C129.067 24 126.346 21.1731 126.346 17.1308C126.346 13.0357 129.014 10.2087 132.845 10.2087C136.755 10.2087 139.239 12.8243 139.239 16.893V17.8705L129.41 17.897C129.648 20.1955 130.863 21.358 133.003 21.358C134.774 21.358 135.936 20.6711 136.306 19.4293H139.291C138.737 22.2827 136.359 24 132.951 24ZM132.871 12.8507C130.969 12.8507 129.807 13.8811 129.49 15.8362H136.042C136.042 14.0396 134.8 12.8507 132.871 12.8507Z" fill="#141414"/>
</svg>
