<?xml version="1.0" encoding="UTF-8" standalone="no"?><svg xmlns="http://www.w3.org/2000/svg" xmlns:xlink="http://www.w3.org/1999/xlink" contentStyleType="text/css" height="2193px" preserveAspectRatio="none" style="width:1411px;height:2193px;background:#FFFFFF;" version="1.1" viewBox="0 0 1411 2193" width="1411px" zoomAndPan="magnify"><defs/><g><rect fill="none" height="148.4688" style="stroke:#000000;stroke-width:1.5;" width="523" x="523" y="228.8281"/><rect fill="none" height="294.1328" style="stroke:#000000;stroke-width:1.5;" width="1336.5" x="58" y="1496.0781"/><line style="stroke:#181818;stroke-width:0.5;stroke-dasharray:5.0,5.0;" x1="31" x2="31" y1="81.2969" y2="2112.5391"/><line style="stroke:#181818;stroke-width:0.5;stroke-dasharray:5.0,5.0;" x1="108" x2="108" y1="81.2969" y2="2112.5391"/><line style="stroke:#181818;stroke-width:0.5;stroke-dasharray:5.0,5.0;" x1="266.5" x2="266.5" y1="81.2969" y2="2112.5391"/><line style="stroke:#181818;stroke-width:0.5;stroke-dasharray:5.0,5.0;" x1="459.5" x2="459.5" y1="81.2969" y2="2112.5391"/><line style="stroke:#181818;stroke-width:0.5;stroke-dasharray:5.0,5.0;" x1="575" x2="575" y1="81.2969" y2="2112.5391"/><line style="stroke:#181818;stroke-width:0.5;stroke-dasharray:5.0,5.0;" x1="713" x2="713" y1="81.2969" y2="2112.5391"/><line style="stroke:#181818;stroke-width:0.5;stroke-dasharray:5.0,5.0;" x1="867" x2="867" y1="81.2969" y2="2112.5391"/><line style="stroke:#181818;stroke-width:0.5;stroke-dasharray:5.0,5.0;" x1="986" x2="986" y1="81.2969" y2="2112.5391"/><line style="stroke:#181818;stroke-width:0.5;stroke-dasharray:5.0,5.0;" x1="1108" x2="1108" y1="81.2969" y2="2112.5391"/><line style="stroke:#181818;stroke-width:0.5;stroke-dasharray:5.0,5.0;" x1="1348.5" x2="1348.5" y1="81.2969" y2="2112.5391"/><text fill="#000000" font-family="sans-serif" font-size="14" lengthAdjust="spacing" textLength="47" x="5" y="77.9951">Citizen</text><ellipse cx="31.5" cy="13.5" fill="#E2E2F0" rx="8" ry="8" style="stroke:#181818;stroke-width:0.5;"/><path d="M31.5,21.5 L31.5,48.5 M18.5,29.5 L44.5,29.5 M31.5,48.5 L18.5,63.5 M31.5,48.5 L44.5,63.5 " fill="none" style="stroke:#181818;stroke-width:0.5;"/><text fill="#000000" font-family="sans-serif" font-size="14" lengthAdjust="spacing" textLength="47" x="5" y="2124.5342">Citizen</text><ellipse cx="31.5" cy="2136.3359" fill="#E2E2F0" rx="8" ry="8" style="stroke:#181818;stroke-width:0.5;"/><path d="M31.5,2144.3359 L31.5,2171.3359 M18.5,2152.3359 L44.5,2152.3359 M31.5,2171.3359 L18.5,2186.3359 M31.5,2171.3359 L44.5,2186.3359 " fill="none" style="stroke:#181818;stroke-width:0.5;"/><text fill="#000000" font-family="sans-serif" font-size="14" lengthAdjust="spacing" textLength="75" x="68" y="77.9951">Gov Official</text><ellipse cx="108.5" cy="13.5" fill="#E2E2F0" rx="8" ry="8" style="stroke:#181818;stroke-width:0.5;"/><path d="M108.5,21.5 L108.5,48.5 M95.5,29.5 L121.5,29.5 M108.5,48.5 L95.5,63.5 M108.5,48.5 L121.5,63.5 " fill="none" style="stroke:#181818;stroke-width:0.5;"/><text fill="#000000" font-family="sans-serif" font-size="14" lengthAdjust="spacing" textLength="75" x="68" y="2124.5342">Gov Official</text><ellipse cx="108.5" cy="2136.3359" fill="#E2E2F0" rx="8" ry="8" style="stroke:#181818;stroke-width:0.5;"/><path d="M108.5,2144.3359 L108.5,2171.3359 M95.5,2152.3359 L121.5,2152.3359 M108.5,2171.3359 L95.5,2186.3359 M108.5,2171.3359 L121.5,2186.3359 " fill="none" style="stroke:#181818;stroke-width:0.5;"/><rect fill="#E2E2F0" height="46.5938" rx="2.5" ry="2.5" style="stroke:#181818;stroke-width:0.5;" width="86" x="223.5" y="33.7031"/><text fill="#000000" font-family="sans-serif" font-size="14" lengthAdjust="spacing" textLength="63" x="235" y="53.6982">Frontend</text><text fill="#000000" font-family="sans-serif" font-size="14" lengthAdjust="spacing" textLength="72" x="230.5" y="69.9951">(React TS)</text><rect fill="#E2E2F0" height="46.5938" rx="2.5" ry="2.5" style="stroke:#181818;stroke-width:0.5;" width="86" x="223.5" y="2111.5391"/><text fill="#000000" font-family="sans-serif" font-size="14" lengthAdjust="spacing" textLength="63" x="235" y="2131.5342">Frontend</text><text fill="#000000" font-family="sans-serif" font-size="14" lengthAdjust="spacing" textLength="72" x="230.5" y="2147.8311">(React TS)</text><rect fill="#E2E2F0" height="46.5938" rx="2.5" ry="2.5" style="stroke:#181818;stroke-width:0.5;" width="100" x="409.5" y="33.7031"/><text fill="#000000" font-family="sans-serif" font-size="14" lengthAdjust="spacing" textLength="86" x="416.5" y="53.6982">Backend API</text><text fill="#000000" font-family="sans-serif" font-size="14" lengthAdjust="spacing" textLength="62" x="428.5" y="69.9951">(Node.js)</text><rect fill="#E2E2F0" height="46.5938" rx="2.5" ry="2.5" style="stroke:#181818;stroke-width:0.5;" width="100" x="409.5" y="2111.5391"/><text fill="#000000" font-family="sans-serif" font-size="14" lengthAdjust="spacing" textLength="86" x="416.5" y="2131.5342">Backend API</text><text fill="#000000" font-family="sans-serif" font-size="14" lengthAdjust="spacing" textLength="62" x="428.5" y="2147.8311">(Node.js)</text><rect fill="#E2E2F0" height="30.2969" rx="2.5" ry="2.5" style="stroke:#181818;stroke-width:0.5;" width="85" x="533" y="50"/><text fill="#000000" font-family="sans-serif" font-size="14" lengthAdjust="spacing" textLength="71" x="540" y="69.9951">Clerk Auth</text><rect fill="#E2E2F0" height="30.2969" rx="2.5" ry="2.5" style="stroke:#181818;stroke-width:0.5;" width="85" x="533" y="2111.5391"/><text fill="#000000" font-family="sans-serif" font-size="14" lengthAdjust="spacing" textLength="71" x="540" y="2131.5342">Clerk Auth</text><rect fill="#E2E2F0" height="30.2969" rx="2.5" ry="2.5" style="stroke:#181818;stroke-width:0.5;" width="170" x="628" y="50"/><text fill="#000000" font-family="sans-serif" font-size="14" lengthAdjust="spacing" textLength="156" x="635" y="69.9951">NIC Verification Service</text><rect fill="#E2E2F0" height="30.2969" rx="2.5" ry="2.5" style="stroke:#181818;stroke-width:0.5;" width="170" x="628" y="2111.5391"/><text fill="#000000" font-family="sans-serif" font-size="14" lengthAdjust="spacing" textLength="156" x="635" y="2131.5342">NIC Verification Service</text><rect fill="#E2E2F0" height="30.2969" rx="2.5" ry="2.5" style="stroke:#181818;stroke-width:0.5;" width="118" x="808" y="50"/><text fill="#000000" font-family="sans-serif" font-size="14" lengthAdjust="spacing" textLength="104" x="815" y="69.9951">Facebook Auth</text><rect fill="#E2E2F0" height="30.2969" rx="2.5" ry="2.5" style="stroke:#181818;stroke-width:0.5;" width="118" x="808" y="2111.5391"/><text fill="#000000" font-family="sans-serif" font-size="14" lengthAdjust="spacing" textLength="104" x="815" y="2131.5342">Facebook Auth</text><rect fill="#E2E2F0" height="30.2969" rx="2.5" ry="2.5" style="stroke:#181818;stroke-width:0.5;" width="100" x="936" y="50"/><text fill="#000000" font-family="sans-serif" font-size="14" lengthAdjust="spacing" textLength="86" x="943" y="69.9951">Google Auth</text><rect fill="#E2E2F0" height="30.2969" rx="2.5" ry="2.5" style="stroke:#181818;stroke-width:0.5;" width="100" x="936" y="2111.5391"/><text fill="#000000" font-family="sans-serif" font-size="14" lengthAdjust="spacing" textLength="86" x="943" y="2131.5342">Google Auth</text><rect fill="#E2E2F0" height="46.5938" rx="2.5" ry="2.5" style="stroke:#181818;stroke-width:0.5;" width="125" x="1046" y="33.7031"/><text fill="#000000" font-family="sans-serif" font-size="14" lengthAdjust="spacing" textLength="111" x="1053" y="53.6982">AI Agent Service</text><text fill="#000000" font-family="sans-serif" font-size="14" lengthAdjust="spacing" textLength="58" x="1079.5" y="69.9951">(Python)</text><rect fill="#E2E2F0" height="46.5938" rx="2.5" ry="2.5" style="stroke:#181818;stroke-width:0.5;" width="125" x="1046" y="2111.5391"/><text fill="#000000" font-family="sans-serif" font-size="14" lengthAdjust="spacing" textLength="111" x="1053" y="2131.5342">AI Agent Service</text><text fill="#000000" font-family="sans-serif" font-size="14" lengthAdjust="spacing" textLength="58" x="1079.5" y="2147.8311">(Python)</text><text fill="#000000" font-family="sans-serif" font-size="14" lengthAdjust="spacing" textLength="66" x="1312.5" y="77.9951">Database</text><path d="M1330.5,29 C1330.5,19 1348.5,19 1348.5,19 C1348.5,19 1366.5,19 1366.5,29 L1366.5,55 C1366.5,65 1348.5,65 1348.5,65 C1348.5,65 1330.5,65 1330.5,55 L1330.5,29 " fill="#E2E2F0" style="stroke:#181818;stroke-width:1.5;"/><path d="M1330.5,29 C1330.5,39 1348.5,39 1348.5,39 C1348.5,39 1366.5,39 1366.5,29 " fill="none" style="stroke:#181818;stroke-width:1.5;"/><text fill="#000000" font-family="sans-serif" font-size="14" lengthAdjust="spacing" textLength="66" x="1312.5" y="2124.5342">Database</text><path d="M1330.5,2137.8359 C1330.5,2127.8359 1348.5,2127.8359 1348.5,2127.8359 C1348.5,2127.8359 1366.5,2127.8359 1366.5,2137.8359 L1366.5,2163.8359 C1366.5,2173.8359 1348.5,2173.8359 1348.5,2173.8359 C1348.5,2173.8359 1330.5,2173.8359 1330.5,2163.8359 L1330.5,2137.8359 " fill="#E2E2F0" style="stroke:#181818;stroke-width:1.5;"/><path d="M1330.5,2137.8359 C1330.5,2147.8359 1348.5,2147.8359 1348.5,2147.8359 C1348.5,2147.8359 1366.5,2147.8359 1366.5,2137.8359 " fill="none" style="stroke:#181818;stroke-width:1.5;"/><rect fill="#EEEEEE" height="3" style="stroke:#EEEEEE;stroke-width:1.0;" width="1404.5" x="0" y="111.8633"/><line style="stroke:#000000;stroke-width:1.0;" x1="0" x2="1404.5" y1="111.8633" y2="111.8633"/><line style="stroke:#000000;stroke-width:1.0;" x1="0" x2="1404.5" y1="114.8633" y2="114.8633"/><rect fill="#EEEEEE" height="23.1328" style="stroke:#000000;stroke-width:2.0;" width="164" x="620.25" y="101.2969"/><text fill="#000000" font-family="sans-serif" font-size="13" font-weight="bold" lengthAdjust="spacing" textLength="145" x="626.25" y="117.3638">Citizen Registration</text><polygon fill="#181818" points="254.5,151.5625,264.5,155.5625,254.5,159.5625,258.5,155.5625" style="stroke:#181818;stroke-width:1.0;"/><line style="stroke:#181818;stroke-width:1.0;" x1="31.5" x2="260.5" y1="155.5625" y2="155.5625"/><text fill="#000000" font-family="sans-serif" font-size="13" lengthAdjust="spacing" textLength="124" x="38.5" y="150.4966">Open Landing Page</text><polygon fill="#181818" points="254.5,180.6953,264.5,184.6953,254.5,188.6953,258.5,184.6953" style="stroke:#181818;stroke-width:1.0;"/><line style="stroke:#181818;stroke-width:1.0;" x1="31.5" x2="260.5" y1="184.6953" y2="184.6953"/><text fill="#000000" font-family="sans-serif" font-size="13" lengthAdjust="spacing" textLength="102" x="38.5" y="179.6294">Choose Sign Up</text><polygon fill="#181818" points="563.5,209.8281,573.5,213.8281,563.5,217.8281,567.5,213.8281" style="stroke:#181818;stroke-width:1.0;"/><line style="stroke:#181818;stroke-width:1.0;" x1="266.5" x2="569.5" y1="213.8281" y2="213.8281"/><text fill="#000000" font-family="sans-serif" font-size="13" lengthAdjust="spacing" textLength="245" x="273.5" y="208.7622">Create user (email/password or social)</text><path d="M523,228.8281 L587,228.8281 L587,235.9609 L577,245.9609 L523,245.9609 L523,228.8281 " fill="#EEEEEE" style="stroke:#000000;stroke-width:1.5;"/><rect fill="none" height="148.4688" style="stroke:#000000;stroke-width:1.5;" width="523" x="523" y="228.8281"/><text fill="#000000" font-family="sans-serif" font-size="13" font-weight="bold" lengthAdjust="spacing" textLength="19" x="538" y="241.895">alt</text><text fill="#000000" font-family="sans-serif" font-size="11" font-weight="bold" lengthAdjust="spacing" textLength="163" x="602" y="241.0386">[Social Login - Facebook]</text><polygon fill="#181818" points="855,263.0938,865,267.0938,855,271.0938,859,267.0938" style="stroke:#181818;stroke-width:1.0;"/><line style="stroke:#181818;stroke-width:1.0;" x1="575.5" x2="861" y1="267.0938" y2="267.0938"/><text fill="#000000" font-family="sans-serif" font-size="13" lengthAdjust="spacing" textLength="93" x="582.5" y="262.0278">OAuth request</text><polygon fill="#181818" points="586.5,292.2266,576.5,296.2266,586.5,300.2266,582.5,296.2266" style="stroke:#181818;stroke-width:1.0;"/><line style="stroke:#181818;stroke-width:1.0;stroke-dasharray:2.0,2.0;" x1="580.5" x2="866" y1="296.2266" y2="296.2266"/><text fill="#000000" font-family="sans-serif" font-size="13" lengthAdjust="spacing" textLength="85" x="592.5" y="291.1606">Auth success</text><line style="stroke:#000000;stroke-width:1.0;stroke-dasharray:2.0,2.0;" x1="523" x2="1046" y1="305.2266" y2="305.2266"/><text fill="#000000" font-family="sans-serif" font-size="11" font-weight="bold" lengthAdjust="spacing" textLength="146" x="528" y="315.437">[Social Login - Google]</text><polygon fill="#181818" points="974,336.1641,984,340.1641,974,344.1641,978,340.1641" style="stroke:#181818;stroke-width:1.0;"/><line style="stroke:#181818;stroke-width:1.0;" x1="575.5" x2="980" y1="340.1641" y2="340.1641"/><text fill="#000000" font-family="sans-serif" font-size="13" lengthAdjust="spacing" textLength="93" x="582.5" y="335.0981">OAuth request</text><polygon fill="#181818" points="586.5,365.2969,576.5,369.2969,586.5,373.2969,582.5,369.2969" style="stroke:#181818;stroke-width:1.0;"/><line style="stroke:#181818;stroke-width:1.0;stroke-dasharray:2.0,2.0;" x1="580.5" x2="985" y1="369.2969" y2="369.2969"/><text fill="#000000" font-family="sans-serif" font-size="13" lengthAdjust="spacing" textLength="85" x="592.5" y="364.231">Auth success</text><polygon fill="#181818" points="277.5,401.4297,267.5,405.4297,277.5,409.4297,273.5,405.4297" style="stroke:#181818;stroke-width:1.0;"/><line style="stroke:#181818;stroke-width:1.0;stroke-dasharray:2.0,2.0;" x1="271.5" x2="574.5" y1="405.4297" y2="405.4297"/><text fill="#000000" font-family="sans-serif" font-size="13" lengthAdjust="spacing" textLength="83" x="283.5" y="400.3638">User created</text><polygon fill="#181818" points="447.5,430.5625,457.5,434.5625,447.5,438.5625,451.5,434.5625" style="stroke:#181818;stroke-width:1.0;"/><line style="stroke:#181818;stroke-width:1.0;" x1="266.5" x2="453.5" y1="434.5625" y2="434.5625"/><text fill="#000000" font-family="sans-serif" font-size="13" lengthAdjust="spacing" textLength="99" x="273.5" y="429.4966">POST /verify-nic</text><polygon fill="#181818" points="701,459.6953,711,463.6953,701,467.6953,705,463.6953" style="stroke:#181818;stroke-width:1.0;"/><line style="stroke:#181818;stroke-width:1.0;" x1="459.5" x2="707" y1="463.6953" y2="463.6953"/><text fill="#000000" font-family="sans-serif" font-size="13" lengthAdjust="spacing" textLength="62" x="466.5" y="458.6294">Verify NIC</text><polygon fill="#181818" points="470.5,488.8281,460.5,492.8281,470.5,496.8281,466.5,492.8281" style="stroke:#181818;stroke-width:1.0;"/><line style="stroke:#181818;stroke-width:1.0;stroke-dasharray:2.0,2.0;" x1="464.5" x2="712" y1="492.8281" y2="492.8281"/><text fill="#000000" font-family="sans-serif" font-size="13" lengthAdjust="spacing" textLength="18" x="476.5" y="487.7622">OK</text><polygon fill="#181818" points="1336.5,517.9609,1346.5,521.9609,1336.5,525.9609,1340.5,521.9609" style="stroke:#181818;stroke-width:1.0;"/><line style="stroke:#181818;stroke-width:1.0;" x1="459.5" x2="1342.5" y1="521.9609" y2="521.9609"/><text fill="#000000" font-family="sans-serif" font-size="13" lengthAdjust="spacing" textLength="175" x="466.5" y="516.895">Save NIC verification status</text><rect fill="#EEEEEE" height="3" style="stroke:#EEEEEE;stroke-width:1.0;" width="1404.5" x="0" y="550.5273"/><line style="stroke:#000000;stroke-width:1.0;" x1="0" x2="1404.5" y1="550.5273" y2="550.5273"/><line style="stroke:#000000;stroke-width:1.0;" x1="0" x2="1404.5" y1="553.5273" y2="553.5273"/><rect fill="#EEEEEE" height="23.1328" style="stroke:#000000;stroke-width:2.0;" width="114" x="645.25" y="539.9609"/><text fill="#000000" font-family="sans-serif" font-size="13" font-weight="bold" lengthAdjust="spacing" textLength="95" x="651.25" y="556.0278">Citizen Login</text><polygon fill="#181818" points="254.5,590.2266,264.5,594.2266,254.5,598.2266,258.5,594.2266" style="stroke:#181818;stroke-width:1.0;"/><line style="stroke:#181818;stroke-width:1.0;" x1="31.5" x2="260.5" y1="594.2266" y2="594.2266"/><text fill="#000000" font-family="sans-serif" font-size="13" lengthAdjust="spacing" textLength="34" x="38.5" y="589.1606">Login</text><polygon fill="#181818" points="563.5,619.3594,573.5,623.3594,563.5,627.3594,567.5,623.3594" style="stroke:#181818;stroke-width:1.0;"/><line style="stroke:#181818;stroke-width:1.0;" x1="266.5" x2="569.5" y1="623.3594" y2="623.3594"/><text fill="#000000" font-family="sans-serif" font-size="13" lengthAdjust="spacing" textLength="114" x="273.5" y="618.2935">Authenticate user</text><polygon fill="#181818" points="277.5,648.4922,267.5,652.4922,277.5,656.4922,273.5,652.4922" style="stroke:#181818;stroke-width:1.0;"/><line style="stroke:#181818;stroke-width:1.0;stroke-dasharray:2.0,2.0;" x1="271.5" x2="574.5" y1="652.4922" y2="652.4922"/><text fill="#000000" font-family="sans-serif" font-size="13" lengthAdjust="spacing" textLength="90" x="283.5" y="647.4263">Session token</text><polygon fill="#181818" points="447.5,677.625,457.5,681.625,447.5,685.625,451.5,681.625" style="stroke:#181818;stroke-width:1.0;"/><line style="stroke:#181818;stroke-width:1.0;" x1="266.5" x2="453.5" y1="681.625" y2="681.625"/><text fill="#000000" font-family="sans-serif" font-size="13" lengthAdjust="spacing" textLength="73" x="273.5" y="676.5591">Send token</text><polygon fill="#181818" points="563.5,706.7578,573.5,710.7578,563.5,714.7578,567.5,710.7578" style="stroke:#181818;stroke-width:1.0;"/><line style="stroke:#181818;stroke-width:1.0;" x1="459.5" x2="569.5" y1="710.7578" y2="710.7578"/><text fill="#000000" font-family="sans-serif" font-size="13" lengthAdjust="spacing" textLength="92" x="466.5" y="705.6919">Validate token</text><polygon fill="#181818" points="470.5,735.8906,460.5,739.8906,470.5,743.8906,466.5,739.8906" style="stroke:#181818;stroke-width:1.0;"/><line style="stroke:#181818;stroke-width:1.0;stroke-dasharray:2.0,2.0;" x1="464.5" x2="574.5" y1="739.8906" y2="739.8906"/><text fill="#000000" font-family="sans-serif" font-size="13" lengthAdjust="spacing" textLength="31" x="476.5" y="734.8247">Valid</text><polygon fill="#181818" points="277.5,765.0234,267.5,769.0234,277.5,773.0234,273.5,769.0234" style="stroke:#181818;stroke-width:1.0;"/><line style="stroke:#181818;stroke-width:1.0;stroke-dasharray:2.0,2.0;" x1="271.5" x2="458.5" y1="769.0234" y2="769.0234"/><text fill="#000000" font-family="sans-serif" font-size="13" lengthAdjust="spacing" textLength="89" x="283.5" y="763.9575">Login success</text><rect fill="#EEEEEE" height="3" style="stroke:#EEEEEE;stroke-width:1.0;" width="1404.5" x="0" y="797.5898"/><line style="stroke:#000000;stroke-width:1.0;" x1="0" x2="1404.5" y1="797.5898" y2="797.5898"/><line style="stroke:#000000;stroke-width:1.0;" x1="0" x2="1404.5" y1="800.5898" y2="800.5898"/><rect fill="#EEEEEE" height="23.1328" style="stroke:#000000;stroke-width:2.0;" width="135" x="634.75" y="787.0234"/><text fill="#000000" font-family="sans-serif" font-size="13" font-weight="bold" lengthAdjust="spacing" textLength="116" x="640.75" y="803.0903">Issue Reporting</text><polygon fill="#181818" points="254.5,837.2891,264.5,841.2891,254.5,845.2891,258.5,841.2891" style="stroke:#181818;stroke-width:1.0;"/><line style="stroke:#181818;stroke-width:1.0;" x1="31.5" x2="260.5" y1="841.2891" y2="841.2891"/><text fill="#000000" font-family="sans-serif" font-size="13" lengthAdjust="spacing" textLength="109" x="38.5" y="836.2231">Create new issue</text><polygon fill="#181818" points="447.5,866.4219,457.5,870.4219,447.5,874.4219,451.5,870.4219" style="stroke:#181818;stroke-width:1.0;"/><line style="stroke:#181818;stroke-width:1.0;" x1="266.5" x2="453.5" y1="870.4219" y2="870.4219"/><text fill="#000000" font-family="sans-serif" font-size="13" lengthAdjust="spacing" textLength="82" x="273.5" y="865.356">POST /issues</text><polygon fill="#181818" points="1336.5,895.5547,1346.5,899.5547,1336.5,903.5547,1340.5,899.5547" style="stroke:#181818;stroke-width:1.0;"/><line style="stroke:#181818;stroke-width:1.0;" x1="459.5" x2="1342.5" y1="899.5547" y2="899.5547"/><text fill="#000000" font-family="sans-serif" font-size="13" lengthAdjust="spacing" textLength="69" x="466.5" y="894.4888">Save issue</text><polygon fill="#181818" points="1096.5,924.6875,1106.5,928.6875,1096.5,932.6875,1100.5,928.6875" style="stroke:#181818;stroke-width:1.0;"/><line style="stroke:#181818;stroke-width:1.0;" x1="459.5" x2="1102.5" y1="928.6875" y2="928.6875"/><text fill="#000000" font-family="sans-serif" font-size="13" lengthAdjust="spacing" textLength="230" x="466.5" y="923.6216">Send issue data for authority match</text><polygon fill="#181818" points="1336.5,953.8203,1346.5,957.8203,1336.5,961.8203,1340.5,957.8203" style="stroke:#181818;stroke-width:1.0;"/><line style="stroke:#181818;stroke-width:1.0;" x1="1108.5" x2="1342.5" y1="957.8203" y2="957.8203"/><text fill="#000000" font-family="sans-serif" font-size="13" lengthAdjust="spacing" textLength="216" x="1115.5" y="952.7544">Fetch category/authority mapping</text><polygon fill="#181818" points="470.5,982.9531,460.5,986.9531,470.5,990.9531,466.5,986.9531" style="stroke:#181818;stroke-width:1.0;"/><line style="stroke:#181818;stroke-width:1.0;stroke-dasharray:2.0,2.0;" x1="464.5" x2="1107.5" y1="986.9531" y2="986.9531"/><text fill="#000000" font-family="sans-serif" font-size="13" lengthAdjust="spacing" textLength="131" x="476.5" y="981.8872">Suggested Authority</text><polygon fill="#181818" points="1336.5,1012.0859,1346.5,1016.0859,1336.5,1020.0859,1340.5,1016.0859" style="stroke:#181818;stroke-width:1.0;"/><line style="stroke:#181818;stroke-width:1.0;" x1="459.5" x2="1342.5" y1="1016.0859" y2="1016.0859"/><text fill="#000000" font-family="sans-serif" font-size="13" lengthAdjust="spacing" textLength="235" x="466.5" y="1011.02">Update issue with assigned authority</text><polygon fill="#181818" points="277.5,1041.2188,267.5,1045.2188,277.5,1049.2188,273.5,1045.2188" style="stroke:#181818;stroke-width:1.0;"/><line style="stroke:#181818;stroke-width:1.0;stroke-dasharray:2.0,2.0;" x1="271.5" x2="458.5" y1="1045.2188" y2="1045.2188"/><text fill="#000000" font-family="sans-serif" font-size="13" lengthAdjust="spacing" textLength="82" x="283.5" y="1040.1528">Confirmation</text><rect fill="#EEEEEE" height="3" style="stroke:#EEEEEE;stroke-width:1.0;" width="1404.5" x="0" y="1073.7852"/><line style="stroke:#000000;stroke-width:1.0;" x1="0" x2="1404.5" y1="1073.7852" y2="1073.7852"/><line style="stroke:#000000;stroke-width:1.0;" x1="0" x2="1404.5" y1="1076.7852" y2="1076.7852"/><rect fill="#EEEEEE" height="23.1328" style="stroke:#000000;stroke-width:2.0;" width="149" x="627.75" y="1063.2188"/><text fill="#000000" font-family="sans-serif" font-size="13" font-weight="bold" lengthAdjust="spacing" textLength="130" x="633.75" y="1079.2856">Gov Official Login</text><polygon fill="#181818" points="254.5,1113.4844,264.5,1117.4844,254.5,1121.4844,258.5,1117.4844" style="stroke:#181818;stroke-width:1.0;"/><line style="stroke:#181818;stroke-width:1.0;" x1="108.5" x2="260.5" y1="1117.4844" y2="1117.4844"/><text fill="#000000" font-family="sans-serif" font-size="13" lengthAdjust="spacing" textLength="34" x="115.5" y="1112.4185">Login</text><polygon fill="#181818" points="563.5,1142.6172,573.5,1146.6172,563.5,1150.6172,567.5,1146.6172" style="stroke:#181818;stroke-width:1.0;"/><line style="stroke:#181818;stroke-width:1.0;" x1="266.5" x2="569.5" y1="1146.6172" y2="1146.6172"/><text fill="#000000" font-family="sans-serif" font-size="13" lengthAdjust="spacing" textLength="114" x="273.5" y="1141.5513">Authenticate user</text><polygon fill="#181818" points="277.5,1171.75,267.5,1175.75,277.5,1179.75,273.5,1175.75" style="stroke:#181818;stroke-width:1.0;"/><line style="stroke:#181818;stroke-width:1.0;stroke-dasharray:2.0,2.0;" x1="271.5" x2="574.5" y1="1175.75" y2="1175.75"/><text fill="#000000" font-family="sans-serif" font-size="13" lengthAdjust="spacing" textLength="90" x="283.5" y="1170.6841">Session token</text><polygon fill="#181818" points="447.5,1200.8828,457.5,1204.8828,447.5,1208.8828,451.5,1204.8828" style="stroke:#181818;stroke-width:1.0;"/><line style="stroke:#181818;stroke-width:1.0;" x1="266.5" x2="453.5" y1="1204.8828" y2="1204.8828"/><text fill="#000000" font-family="sans-serif" font-size="13" lengthAdjust="spacing" textLength="73" x="273.5" y="1199.8169">Send token</text><polygon fill="#181818" points="563.5,1230.0156,573.5,1234.0156,563.5,1238.0156,567.5,1234.0156" style="stroke:#181818;stroke-width:1.0;"/><line style="stroke:#181818;stroke-width:1.0;" x1="459.5" x2="569.5" y1="1234.0156" y2="1234.0156"/><text fill="#000000" font-family="sans-serif" font-size="13" lengthAdjust="spacing" textLength="92" x="466.5" y="1228.9497">Validate token</text><polygon fill="#181818" points="470.5,1259.1484,460.5,1263.1484,470.5,1267.1484,466.5,1263.1484" style="stroke:#181818;stroke-width:1.0;"/><line style="stroke:#181818;stroke-width:1.0;stroke-dasharray:2.0,2.0;" x1="464.5" x2="574.5" y1="1263.1484" y2="1263.1484"/><text fill="#000000" font-family="sans-serif" font-size="13" lengthAdjust="spacing" textLength="31" x="476.5" y="1258.0825">Valid</text><polygon fill="#181818" points="277.5,1288.2813,267.5,1292.2813,277.5,1296.2813,273.5,1292.2813" style="stroke:#181818;stroke-width:1.0;"/><line style="stroke:#181818;stroke-width:1.0;stroke-dasharray:2.0,2.0;" x1="271.5" x2="458.5" y1="1292.2813" y2="1292.2813"/><text fill="#000000" font-family="sans-serif" font-size="13" lengthAdjust="spacing" textLength="89" x="283.5" y="1287.2153">Login success</text><rect fill="#EEEEEE" height="3" style="stroke:#EEEEEE;stroke-width:1.0;" width="1404.5" x="0" y="1320.8477"/><line style="stroke:#000000;stroke-width:1.0;" x1="0" x2="1404.5" y1="1320.8477" y2="1320.8477"/><line style="stroke:#000000;stroke-width:1.0;" x1="0" x2="1404.5" y1="1323.8477" y2="1323.8477"/><rect fill="#EEEEEE" height="23.1328" style="stroke:#000000;stroke-width:2.0;" width="249" x="577.75" y="1310.2813"/><text fill="#000000" font-family="sans-serif" font-size="13" font-weight="bold" lengthAdjust="spacing" textLength="230" x="583.75" y="1326.3481">Gov Official Issue Management</text><polygon fill="#181818" points="254.5,1360.5469,264.5,1364.5469,254.5,1368.5469,258.5,1364.5469" style="stroke:#181818;stroke-width:1.0;"/><line style="stroke:#181818;stroke-width:1.0;" x1="108.5" x2="260.5" y1="1364.5469" y2="1364.5469"/><text fill="#000000" font-family="sans-serif" font-size="13" lengthAdjust="spacing" textLength="134" x="115.5" y="1359.481">View assigned issues</text><polygon fill="#181818" points="447.5,1389.6797,457.5,1393.6797,447.5,1397.6797,451.5,1393.6797" style="stroke:#181818;stroke-width:1.0;"/><line style="stroke:#181818;stroke-width:1.0;" x1="266.5" x2="453.5" y1="1393.6797" y2="1393.6797"/><text fill="#000000" font-family="sans-serif" font-size="13" lengthAdjust="spacing" textLength="134" x="273.5" y="1388.6138">GET /issues/assigned</text><polygon fill="#181818" points="1336.5,1418.8125,1346.5,1422.8125,1336.5,1426.8125,1340.5,1422.8125" style="stroke:#181818;stroke-width:1.0;"/><line style="stroke:#181818;stroke-width:1.0;" x1="459.5" x2="1342.5" y1="1422.8125" y2="1422.8125"/><text fill="#000000" font-family="sans-serif" font-size="13" lengthAdjust="spacing" textLength="140" x="466.5" y="1417.7466">Fetch assigned issues</text><polygon fill="#181818" points="470.5,1447.9453,460.5,1451.9453,470.5,1455.9453,466.5,1451.9453" style="stroke:#181818;stroke-width:1.0;"/><line style="stroke:#181818;stroke-width:1.0;stroke-dasharray:2.0,2.0;" x1="464.5" x2="1347.5" y1="1451.9453" y2="1451.9453"/><text fill="#000000" font-family="sans-serif" font-size="13" lengthAdjust="spacing" textLength="82" x="476.5" y="1446.8794">List of issues</text><polygon fill="#181818" points="277.5,1477.0781,267.5,1481.0781,277.5,1485.0781,273.5,1481.0781" style="stroke:#181818;stroke-width:1.0;"/><line style="stroke:#181818;stroke-width:1.0;stroke-dasharray:2.0,2.0;" x1="271.5" x2="458.5" y1="1481.0781" y2="1481.0781"/><text fill="#000000" font-family="sans-serif" font-size="13" lengthAdjust="spacing" textLength="90" x="283.5" y="1476.0122">Display issues</text><path d="M58,1496.0781 L122,1496.0781 L122,1503.2109 L112,1513.2109 L58,1513.2109 L58,1496.0781 " fill="#EEEEEE" style="stroke:#000000;stroke-width:1.5;"/><rect fill="none" height="294.1328" style="stroke:#000000;stroke-width:1.5;" width="1336.5" x="58" y="1496.0781"/><text fill="#000000" font-family="sans-serif" font-size="13" font-weight="bold" lengthAdjust="spacing" textLength="19" x="73" y="1509.145">alt</text><text fill="#000000" font-family="sans-serif" font-size="11" font-weight="bold" lengthAdjust="spacing" textLength="100" x="137" y="1508.2886">[Approve Issue]</text><polygon fill="#181818" points="254.5,1530.3438,264.5,1534.3438,254.5,1538.3438,258.5,1534.3438" style="stroke:#181818;stroke-width:1.0;"/><line style="stroke:#181818;stroke-width:1.0;" x1="108.5" x2="260.5" y1="1534.3438" y2="1534.3438"/><text fill="#000000" font-family="sans-serif" font-size="13" lengthAdjust="spacing" textLength="90" x="115.5" y="1529.2778">Approve issue</text><polygon fill="#181818" points="447.5,1559.4766,457.5,1563.4766,447.5,1567.4766,451.5,1563.4766" style="stroke:#181818;stroke-width:1.0;"/><line style="stroke:#181818;stroke-width:1.0;" x1="266.5" x2="453.5" y1="1563.4766" y2="1563.4766"/><text fill="#000000" font-family="sans-serif" font-size="13" lengthAdjust="spacing" textLength="169" x="273.5" y="1558.4106">POST /issues/{id}/approve</text><polygon fill="#181818" points="1336.5,1588.6094,1346.5,1592.6094,1336.5,1596.6094,1340.5,1592.6094" style="stroke:#181818;stroke-width:1.0;"/><line style="stroke:#181818;stroke-width:1.0;" x1="459.5" x2="1342.5" y1="1592.6094" y2="1592.6094"/><text fill="#000000" font-family="sans-serif" font-size="13" lengthAdjust="spacing" textLength="171" x="466.5" y="1587.5435">Update status = Approved</text><polygon fill="#181818" points="1336.5,1617.7422,1346.5,1621.7422,1336.5,1625.7422,1340.5,1621.7422" style="stroke:#181818;stroke-width:1.0;"/><line style="stroke:#181818;stroke-width:1.0;" x1="459.5" x2="1342.5" y1="1621.7422" y2="1621.7422"/><text fill="#000000" font-family="sans-serif" font-size="13" lengthAdjust="spacing" textLength="166" x="466.5" y="1616.6763">Create appointment entry</text><polygon fill="#181818" points="277.5,1646.875,267.5,1650.875,277.5,1654.875,273.5,1650.875" style="stroke:#181818;stroke-width:1.0;"/><line style="stroke:#181818;stroke-width:1.0;stroke-dasharray:2.0,2.0;" x1="271.5" x2="458.5" y1="1650.875" y2="1650.875"/><text fill="#000000" font-family="sans-serif" font-size="13" lengthAdjust="spacing" textLength="129" x="283.5" y="1645.8091">Appointment details</text><line style="stroke:#000000;stroke-width:1.0;stroke-dasharray:2.0,2.0;" x1="58" x2="1394.5" y1="1659.875" y2="1659.875"/><text fill="#000000" font-family="sans-serif" font-size="11" font-weight="bold" lengthAdjust="spacing" textLength="88" x="63" y="1670.0854">[Reject Issue]</text><polygon fill="#181818" points="254.5,1690.8125,264.5,1694.8125,254.5,1698.8125,258.5,1694.8125" style="stroke:#181818;stroke-width:1.0;"/><line style="stroke:#181818;stroke-width:1.0;" x1="108.5" x2="260.5" y1="1694.8125" y2="1694.8125"/><text fill="#000000" font-family="sans-serif" font-size="13" lengthAdjust="spacing" textLength="76" x="115.5" y="1689.7466">Reject issue</text><polygon fill="#181818" points="447.5,1719.9453,457.5,1723.9453,447.5,1727.9453,451.5,1723.9453" style="stroke:#181818;stroke-width:1.0;"/><line style="stroke:#181818;stroke-width:1.0;" x1="266.5" x2="453.5" y1="1723.9453" y2="1723.9453"/><text fill="#000000" font-family="sans-serif" font-size="13" lengthAdjust="spacing" textLength="153" x="273.5" y="1718.8794">POST /issues/{id}/reject</text><polygon fill="#181818" points="1336.5,1749.0781,1346.5,1753.0781,1336.5,1757.0781,1340.5,1753.0781" style="stroke:#181818;stroke-width:1.0;"/><line style="stroke:#181818;stroke-width:1.0;" x1="459.5" x2="1342.5" y1="1753.0781" y2="1753.0781"/><text fill="#000000" font-family="sans-serif" font-size="13" lengthAdjust="spacing" textLength="165" x="466.5" y="1748.0122">Update status = Rejected</text><polygon fill="#181818" points="277.5,1778.2109,267.5,1782.2109,277.5,1786.2109,273.5,1782.2109" style="stroke:#181818;stroke-width:1.0;"/><line style="stroke:#181818;stroke-width:1.0;stroke-dasharray:2.0,2.0;" x1="271.5" x2="458.5" y1="1782.2109" y2="1782.2109"/><text fill="#000000" font-family="sans-serif" font-size="13" lengthAdjust="spacing" textLength="142" x="283.5" y="1777.145">Rejection confirmation</text><rect fill="#EEEEEE" height="3" style="stroke:#EEEEEE;stroke-width:1.0;" width="1404.5" x="0" y="1817.7773"/><line style="stroke:#000000;stroke-width:1.0;" x1="0" x2="1404.5" y1="1817.7773" y2="1817.7773"/><line style="stroke:#000000;stroke-width:1.0;" x1="0" x2="1404.5" y1="1820.7773" y2="1820.7773"/><rect fill="#EEEEEE" height="23.1328" style="stroke:#000000;stroke-width:2.0;" width="226" x="589.25" y="1807.2109"/><text fill="#000000" font-family="sans-serif" font-size="13" font-weight="bold" lengthAdjust="spacing" textLength="207" x="595.25" y="1823.2778">Appointment and Feedback</text><polygon fill="#181818" points="254.5,1857.4766,264.5,1861.4766,254.5,1865.4766,258.5,1861.4766" style="stroke:#181818;stroke-width:1.0;"/><line style="stroke:#181818;stroke-width:1.0;" x1="31.5" x2="260.5" y1="1861.4766" y2="1861.4766"/><text fill="#000000" font-family="sans-serif" font-size="13" lengthAdjust="spacing" textLength="115" x="38.5" y="1856.4106">View appointment</text><polygon fill="#181818" points="447.5,1886.6094,457.5,1890.6094,447.5,1894.6094,451.5,1890.6094" style="stroke:#181818;stroke-width:1.0;"/><line style="stroke:#181818;stroke-width:1.0;" x1="266.5" x2="453.5" y1="1890.6094" y2="1890.6094"/><text fill="#000000" font-family="sans-serif" font-size="13" lengthAdjust="spacing" textLength="122" x="273.5" y="1885.5435">GET /appointments</text><polygon fill="#181818" points="1336.5,1915.7422,1346.5,1919.7422,1336.5,1923.7422,1340.5,1919.7422" style="stroke:#181818;stroke-width:1.0;"/><line style="stroke:#181818;stroke-width:1.0;" x1="459.5" x2="1342.5" y1="1919.7422" y2="1919.7422"/><text fill="#000000" font-family="sans-serif" font-size="13" lengthAdjust="spacing" textLength="128" x="466.5" y="1914.6763">Fetch appointments</text><polygon fill="#181818" points="470.5,1944.875,460.5,1948.875,470.5,1952.875,466.5,1948.875" style="stroke:#181818;stroke-width:1.0;"/><line style="stroke:#181818;stroke-width:1.0;stroke-dasharray:2.0,2.0;" x1="464.5" x2="1347.5" y1="1948.875" y2="1948.875"/><text fill="#000000" font-family="sans-serif" font-size="13" lengthAdjust="spacing" textLength="105" x="476.5" y="1943.8091">Appointment list</text><polygon fill="#181818" points="277.5,1974.0078,267.5,1978.0078,277.5,1982.0078,273.5,1978.0078" style="stroke:#181818;stroke-width:1.0;"/><line style="stroke:#181818;stroke-width:1.0;stroke-dasharray:2.0,2.0;" x1="271.5" x2="458.5" y1="1978.0078" y2="1978.0078"/><text fill="#000000" font-family="sans-serif" font-size="13" lengthAdjust="spacing" textLength="166" x="283.5" y="1972.9419">Show appointment details</text><polygon fill="#181818" points="254.5,2003.1406,264.5,2007.1406,254.5,2011.1406,258.5,2007.1406" style="stroke:#181818;stroke-width:1.0;"/><line style="stroke:#181818;stroke-width:1.0;" x1="31.5" x2="260.5" y1="2007.1406" y2="2007.1406"/><text fill="#000000" font-family="sans-serif" font-size="13" lengthAdjust="spacing" textLength="108" x="38.5" y="2002.0747">Submit feedback</text><polygon fill="#181818" points="447.5,2032.2734,457.5,2036.2734,447.5,2040.2734,451.5,2036.2734" style="stroke:#181818;stroke-width:1.0;"/><line style="stroke:#181818;stroke-width:1.0;" x1="266.5" x2="453.5" y1="2036.2734" y2="2036.2734"/><text fill="#000000" font-family="sans-serif" font-size="13" lengthAdjust="spacing" textLength="100" x="273.5" y="2031.2075">POST /feedback</text><polygon fill="#181818" points="1336.5,2061.4063,1346.5,2065.4063,1336.5,2069.4063,1340.5,2065.4063" style="stroke:#181818;stroke-width:1.0;"/><line style="stroke:#181818;stroke-width:1.0;" x1="459.5" x2="1342.5" y1="2065.4063" y2="2065.4063"/><text fill="#000000" font-family="sans-serif" font-size="13" lengthAdjust="spacing" textLength="94" x="466.5" y="2060.3403">Save feedback</text><polygon fill="#181818" points="277.5,2090.5391,267.5,2094.5391,277.5,2098.5391,273.5,2094.5391" style="stroke:#181818;stroke-width:1.0;"/><line style="stroke:#181818;stroke-width:1.0;stroke-dasharray:2.0,2.0;" x1="271.5" x2="458.5" y1="2094.5391" y2="2094.5391"/><text fill="#000000" font-family="sans-serif" font-size="13" lengthAdjust="spacing" textLength="145" x="283.5" y="2089.4731">Feedback confirmation</text><!--MD5=[280ddc2f245a2f03018b87fe0f673c5c]
@startuml
actor Citizen as CIT
actor "Gov Official" as GOV
participant "Frontend\n(React TS)" as FE
participant "Backend API\n(Node.js)" as BE
participant "Clerk Auth" as CLERK
participant "NIC Verification Service" as NIC
participant "Facebook Auth" as FB
participant "Google Auth" as GG
participant "AI Agent Service\n(Python)" as AI
database "Database" as DB

== Citizen Registration ==
CIT -> FE: Open Landing Page
CIT -> FE: Choose Sign Up
FE -> CLERK: Create user (email/password or social)
alt Social Login - Facebook
    CLERK -> FB: OAuth request
    FB - -> CLERK: Auth success
else Social Login - Google
    CLERK -> GG: OAuth request
    GG - -> CLERK: Auth success
end
CLERK - -> FE: User created
FE -> BE: POST /verify-nic
BE -> NIC: Verify NIC
NIC - -> BE: OK
BE -> DB: Save NIC verification status

== Citizen Login ==
CIT -> FE: Login
FE -> CLERK: Authenticate user
CLERK - -> FE: Session token
FE -> BE: Send token
BE -> CLERK: Validate token
CLERK - -> BE: Valid
BE - -> FE: Login success

== Issue Reporting ==
CIT -> FE: Create new issue
FE -> BE: POST /issues
BE -> DB: Save issue
BE -> AI: Send issue data for authority match
AI -> DB: Fetch category/authority mapping
AI - -> BE: Suggested Authority
BE -> DB: Update issue with assigned authority
BE - -> FE: Confirmation

== Gov Official Login ==
GOV -> FE: Login
FE -> CLERK: Authenticate user
CLERK - -> FE: Session token
FE -> BE: Send token
BE -> CLERK: Validate token
CLERK - -> BE: Valid
BE - -> FE: Login success

== Gov Official Issue Management ==
GOV -> FE: View assigned issues
FE -> BE: GET /issues/assigned
BE -> DB: Fetch assigned issues
DB - -> BE: List of issues
BE - -> FE: Display issues

alt Approve Issue
    GOV -> FE: Approve issue
    FE -> BE: POST /issues/{id}/approve
    BE -> DB: Update status = Approved
    BE -> DB: Create appointment entry
    BE - -> FE: Appointment details
else Reject Issue
    GOV -> FE: Reject issue
    FE -> BE: POST /issues/{id}/reject
    BE -> DB: Update status = Rejected
    BE - -> FE: Rejection confirmation
end

== Appointment and Feedback ==
CIT -> FE: View appointment
FE -> BE: GET /appointments
BE -> DB: Fetch appointments
DB - -> BE: Appointment list
BE - -> FE: Show appointment details

CIT -> FE: Submit feedback
FE -> BE: POST /feedback
BE -> DB: Save feedback
BE - -> FE: Feedback confirmation
@enduml

PlantUML version 1.2022.7(Mon Aug 22 17:01:30 UTC 2022)
(GPL source distribution)
Java Runtime: OpenJDK Runtime Environment
JVM: OpenJDK 64-Bit Server VM
Default Encoding: UTF-8
Language: en
Country: null
--></g></svg>